<svg width="78" height="76" viewBox="0 0 78 76" fill="none" xmlns="http://www.w3.org/2000/svg">
<path d="M17.8901 62.2544L0.892578 75.6612V4.79681C0.892578 3.7809 1.29455 2.8066 2.01008 2.08824C2.7256 1.36988 3.69606 0.966309 4.70796 0.966309H73.3849C74.3968 0.966309 75.3673 1.36988 76.0828 2.08824C76.7983 2.8066 77.2003 3.7809 77.2003 4.79681V58.4239C77.2003 59.4398 76.7983 60.4141 76.0828 61.1325C75.3673 61.8508 74.3968 62.2544 73.3849 62.2544H17.8901ZM15.2499 54.5934H69.5695V8.62732H8.52335V59.8986L15.2499 54.5934ZM35.231 27.7798H42.8618V35.4409H35.231V27.7798ZM19.9695 27.7798H27.6003V35.4409H19.9695V27.7798ZM50.4926 27.7798H58.1234V35.4409H50.4926V27.7798Z" fill="black"/>
</svg>
