<svg width="133" height="122" viewBox="0 0 133 122" fill="none" xmlns="http://www.w3.org/2000/svg">
<g opacity="0.4" filter="url(#filter0_f_6001_3078)">
<path d="M94.2868 24.677C96.3357 25.7984 97.3852 28.1487 96.8524 30.4229L95.589 35.816C95.2054 37.4537 95.6586 39.1604 96.6727 40.5023C98.0869 42.3737 99.3126 44.3818 100.323 46.502C101.014 47.9525 102.232 49.1093 103.771 49.5691L109.823 51.3765C112.025 52.0342 113.534 54.0596 113.534 56.3576V65.5852C113.534 67.8835 112.025 69.909 109.823 70.5665L103.767 72.3745C102.228 72.834 101.01 73.9904 100.319 75.4406C99.3096 77.5574 98.0859 79.5624 96.6742 81.4312C95.6604 82.7731 95.2073 84.4797 95.5909 86.1172L96.8544 91.5106C97.3871 93.7848 96.3377 96.135 94.2888 97.2565L85.4258 102.107C83.5177 103.152 81.1611 102.898 79.5194 101.471L74.6582 97.2451C73.492 96.2314 71.9371 95.8091 70.3996 95.9633C69.1098 96.0926 67.8004 96.1596 66.4746 96.1596C65.1495 96.1596 63.8407 96.0929 62.5515 95.9639C61.014 95.81 59.4592 96.2323 58.2931 97.246L53.4298 101.474C51.7881 102.901 49.4315 103.155 47.5234 102.11L38.6599 97.2591C36.6113 96.1378 35.5618 93.7879 36.0942 91.5139L37.3578 86.1168C37.7411 84.4795 37.288 82.7733 36.2744 81.4316C34.862 79.5619 33.6378 77.5559 32.6286 75.4381C31.9374 73.9877 30.7193 72.8311 29.1798 72.3715L23.1274 70.5645C20.9252 69.907 19.416 67.8815 19.416 65.5833V56.3566C19.416 54.0585 20.9249 52.0332 23.1268 51.3755L29.1779 49.5681C30.7173 49.1084 31.9353 47.9516 32.6263 46.5012C33.636 44.3816 34.8609 42.374 36.2743 40.503C37.2879 39.1612 37.7411 37.4549 37.3577 35.8175L36.0953 30.4254C35.5628 28.1514 36.6123 25.8015 38.661 24.6802L47.5242 19.829C49.4324 18.7846 51.7891 19.0387 53.4308 20.4659L58.29 24.6901C59.4562 25.704 61.0112 26.1263 62.5489 25.9724C63.8389 25.8434 65.1486 25.7768 66.4746 25.7768C67.7992 25.7768 69.1074 25.8432 70.3961 25.9719C71.9334 26.1255 73.4879 25.7033 74.654 24.6898L79.5175 20.4625C81.1592 19.0356 83.5157 18.7816 85.4237 19.8259L94.2868 24.677Z" fill="#024889"/>
</g>
<g filter="url(#filter1_ii_6001_3078)">
<path d="M64.1019 16.1608C65.2679 17.1745 66.8226 17.5984 68.3592 17.4375C69.8208 17.2843 71.306 17.2052 72.8105 17.2052C74.3174 17.2052 75.8048 17.2845 77.2686 17.4381C78.8053 17.5993 80.3601 17.1755 81.5263 16.1619L87.1806 11.2473C88.8223 9.82039 91.1788 9.56642 93.0868 10.6107L103.251 16.1739C105.3 17.2953 106.349 19.6453 105.817 21.9194L104.32 28.3094C103.937 29.9468 104.388 31.6542 105.409 32.9901C107.04 35.1223 108.443 37.4206 109.585 39.8534C110.268 41.3072 111.487 42.4624 113.026 42.922L120.109 45.0373C122.311 45.695 123.82 47.7204 123.82 50.0185V60.6701C123.82 62.9682 122.311 64.9937 120.109 65.6512L113.033 67.7644C111.493 68.2242 110.273 69.3802 109.59 70.8348C108.447 73.2715 107.041 75.5731 105.409 77.7083C104.387 79.0442 103.936 80.7517 104.319 82.3891L105.816 88.7771C106.348 91.0512 105.299 93.4013 103.25 94.5227L93.086 100.086C91.1779 101.131 88.8212 100.877 87.1795 99.4498L81.5274 94.5368C80.3611 93.523 78.8062 93.0992 77.2694 93.2607C75.8054 93.4146 74.3177 93.4942 72.8105 93.4942C71.306 93.4942 69.8208 93.4147 68.3591 93.2613C66.8226 93.1 65.2679 93.5239 64.1019 94.5376L58.4484 99.4525C56.8067 100.88 54.45 101.134 52.5418 100.089L42.3778 94.5264C40.3291 93.4051 39.2796 91.0551 39.8121 88.7811L41.3068 82.3975C41.6902 80.7598 41.2385 79.052 40.2165 77.7161C38.582 75.5795 37.1753 73.2761 36.0309 70.8376C35.3482 69.383 34.1283 68.2272 32.5887 67.7675L25.5199 65.657C23.3177 64.9995 21.8086 62.974 21.8086 60.6758V50.0252C21.8086 47.7272 23.3175 45.7018 25.5194 45.0441L32.5879 42.9331C34.1274 42.4733 35.3471 41.3174 36.0297 39.8629C37.174 37.4244 38.5805 35.1209 40.2148 32.9843C41.2366 31.6483 41.6883 29.9407 41.3049 28.3031L39.8091 21.9152C39.2767 19.6413 40.326 17.2914 42.3746 16.17L52.5387 10.6063C54.447 9.56175 56.8038 9.81586 58.4456 11.2432L64.1019 16.1608Z" fill="#2388FF"/>
</g>
<mask id="mask0_6001_3078" style="mask-type:alpha" maskUnits="userSpaceOnUse" x="21" y="9" width="103" height="92">
<path d="M64.101 16.161C65.267 17.1746 66.8216 17.5985 68.3581 17.4376C69.8198 17.2844 71.305 17.2053 72.8096 17.2053C74.3165 17.2053 75.8038 17.2846 77.2676 17.4381C78.8043 17.5993 80.3591 17.1756 81.5253 16.162L87.1796 11.2474C88.8213 9.82048 91.1778 9.5665 93.0858 10.6108L103.25 16.174C105.299 17.2953 106.348 19.6454 105.816 21.9195L104.319 28.3095C103.936 29.9469 104.387 31.6542 105.408 32.9902C107.039 35.1224 108.442 37.4207 109.584 39.8535C110.267 41.3073 111.486 42.4625 113.025 42.9221L120.108 45.0374C122.31 45.6951 123.819 47.7205 123.819 50.0186V60.6702C123.819 62.9683 122.31 64.9938 120.108 65.6513L113.032 67.7645C111.492 68.2243 110.272 69.3802 109.589 70.8349C108.446 73.2715 107.04 75.5732 105.408 77.7084C104.386 79.0443 103.935 80.7518 104.318 82.3892L105.815 88.7772C106.347 91.0513 105.298 93.4014 103.249 94.5228L93.085 100.087C91.1769 101.131 88.8202 100.877 87.1785 99.4499L81.5264 94.5369C80.3602 93.5231 78.8052 93.0993 77.2684 93.2608C75.8044 93.4146 74.3168 93.4943 72.8096 93.4943C71.305 93.4943 69.8198 93.4148 68.3582 93.2613C66.8216 93.1001 65.267 93.524 64.101 94.5377L58.4474 99.4526C56.8057 100.88 54.449 101.134 52.5408 100.09L42.3768 94.5265C40.3281 93.4052 39.2787 91.0552 39.8111 88.7812L41.3058 82.3976C41.6893 80.7599 41.2375 79.0521 40.2155 77.7162C38.581 75.5796 37.1744 73.2762 36.0299 70.8377C35.3472 69.3831 34.1273 68.2273 32.5877 67.7676L25.5189 65.6571C23.3167 64.9996 21.8076 62.9741 21.8076 60.6758V50.0253C21.8076 47.7273 23.3165 45.7019 25.5185 45.0442L32.5869 42.9331C34.1264 42.4733 35.3462 41.3175 36.0287 39.863C37.173 37.4246 38.5794 35.1212 40.2137 32.9845C41.2356 31.6485 41.6872 29.9407 41.3036 28.303L39.8075 21.9155C39.2749 19.6415 40.3242 17.2914 42.373 16.1699L52.5369 10.6063C54.4451 9.56179 56.8019 9.81584 58.4436 11.243L64.101 16.161Z" fill="#2388FF"/>
</mask>
<g mask="url(#mask0_6001_3078)">
<g opacity="0.2" filter="url(#filter2_f_6001_3078)">
<mask id="path-4-inside-1_6001_3078" fill="white">
<path d="M102.216 17.317C104.265 18.4385 105.314 20.7885 104.781 23.0626L103.376 29.0631C102.992 30.7004 103.444 32.4074 104.463 33.7455C106.007 35.7742 107.339 37.957 108.429 40.2655C109.115 41.7183 110.334 42.8742 111.874 43.3339L118.547 45.3263C120.749 45.9838 122.258 48.0093 122.258 50.3075V60.3943C122.258 62.6925 120.749 64.718 118.547 65.3755L111.875 67.3678C110.335 67.8275 109.116 68.9836 108.43 70.4365C107.34 72.7456 106.007 74.929 104.462 76.9582C103.443 78.2963 102.991 80.0033 103.375 81.6406L104.779 87.636C105.312 89.9101 104.263 92.2603 102.214 93.3818L92.5654 98.6625C90.6573 99.7069 88.3008 99.4529 86.6591 98.0258L81.3215 93.3862C80.1552 92.3724 78.6001 91.9492 77.0629 92.108C75.6669 92.2523 74.2488 92.3269 72.8125 92.3269C71.3784 92.3269 69.9626 92.2528 68.5687 92.1093C67.0316 91.951 65.4768 92.3743 64.3107 93.388L58.9719 98.0293C57.3302 99.4565 54.9734 99.7106 53.0652 98.6661L43.4166 93.3846C41.368 92.2632 40.3187 89.9133 40.8511 87.6394L42.2542 81.6468C42.6376 80.0093 42.1853 78.3022 41.1665 76.9641C39.6193 74.9323 38.2841 72.7458 37.1926 70.4333C36.5067 68.98 35.2873 67.8235 33.7474 67.3638L27.0865 65.3753C24.8842 64.7179 23.375 62.6924 23.375 60.3941V50.3072C23.375 48.0091 24.8839 45.9837 27.0859 45.3261L33.7492 43.336C35.2886 42.8762 36.5077 41.7202 37.1936 40.2674C38.2849 37.956 39.6198 35.7705 41.1664 33.7396C42.1853 32.4015 42.6375 30.6943 42.2541 29.0568L40.8512 23.0655C40.3187 20.7915 41.3682 18.4415 43.4169 17.3201L53.0653 12.0393C54.9734 10.9949 57.3301 11.249 58.9718 12.6762L64.3097 17.3166C65.4758 18.3304 67.0307 18.7537 68.5677 18.5951C69.9619 18.4512 71.3781 18.3767 72.8125 18.3767C74.2476 18.3767 75.6645 18.4512 77.0593 18.5951C78.5963 18.7536 80.1511 18.3304 81.3173 17.3168L86.6609 12.672C88.3027 11.245 90.6593 10.991 92.5674 12.0355L102.216 17.317Z"/>
</mask>
<path d="M72.8125 92.3269V93.9305V92.3269ZM72.8125 18.3767V16.7731V18.3767ZM86.6609 12.672L87.7129 13.8823L86.6609 12.672ZM92.5674 12.0355L91.7974 13.4422L92.5674 12.0355ZM58.9718 12.6762L57.9197 13.8864L58.9718 12.6762ZM41.1664 33.7396L39.8906 32.768L41.1664 33.7396ZM42.2541 29.0568L40.6927 29.4224L42.2541 29.0568ZM33.7492 43.336L33.2903 41.7995L33.7492 43.336ZM27.0859 45.3261L26.627 43.7895L27.0859 45.3261ZM27.0865 65.3753L27.5452 63.8388L27.0865 65.3753ZM37.1926 70.4333L35.7425 71.1177L37.1926 70.4333ZM33.7474 67.3638L33.2887 68.9004L33.7474 67.3638ZM41.1665 76.9641L39.8906 77.9356L41.1665 76.9641ZM43.4166 93.3846L42.6466 94.7912L43.4166 93.3846ZM58.9719 98.0293L60.024 99.2395L58.9719 98.0293ZM53.0652 98.6661L52.2952 100.073L53.0652 98.6661ZM81.3215 93.3862L80.2695 94.5965L81.3215 93.3862ZM77.0629 92.108L76.8981 90.5129L77.0629 92.108ZM92.5654 98.6625L93.3353 100.069L92.5654 98.6625ZM86.6591 98.0258L85.6071 99.2361L86.6591 98.0258ZM104.779 87.636L103.218 88.0017L104.779 87.636ZM102.214 93.3818L101.444 91.9751L102.214 93.3818ZM104.462 76.9582L103.186 75.9869L104.462 76.9582ZM103.375 81.6406L101.814 82.0064L103.375 81.6406ZM111.875 67.3678L111.416 65.8312L111.875 67.3678ZM108.43 70.4365L109.88 71.1211L108.43 70.4365ZM118.547 45.3263L119.005 43.7897L118.547 45.3263ZM108.429 40.2655L106.979 40.9501L108.429 40.2655ZM81.3173 17.3168L80.2653 16.1065L81.3173 17.3168ZM103.376 29.0631L104.937 29.4288L103.376 29.0631ZM104.463 33.7455L103.187 34.7167L104.463 33.7455ZM68.5687 92.1093L68.733 90.5141L68.5687 92.1093ZM64.3107 93.388L63.2586 92.1778L64.3107 93.388ZM104.781 23.0626L103.22 22.6969L104.781 23.0626ZM102.216 17.317L102.986 15.9104L102.216 17.317ZM104.781 23.0626L103.22 22.6969L101.815 28.6974L103.376 29.0631L104.937 29.4288L106.343 23.4283L104.781 23.0626ZM104.463 33.7455L103.187 34.7167C104.664 36.6581 105.938 38.7452 106.979 40.9501L108.429 40.2655L109.879 39.5808C108.741 37.1689 107.349 34.8903 105.739 32.7743L104.463 33.7455ZM111.874 43.3339L111.415 44.8704L118.088 46.8628L118.547 45.3263L119.005 43.7897L112.333 41.7973L111.874 43.3339ZM122.258 50.3075H120.654V60.3943H122.258H123.861V50.3075H122.258ZM118.547 65.3755L118.088 63.839L111.416 65.8312L111.875 67.3678L112.334 68.9043L119.006 66.9121L118.547 65.3755ZM108.43 70.4365L106.98 69.7518C105.939 71.9574 104.664 74.0449 103.186 75.9869L104.462 76.9582L105.738 77.9295C107.349 75.813 108.741 73.5339 109.88 71.1211L108.43 70.4365ZM103.375 81.6406L101.814 82.0064L103.218 88.0017L104.779 87.636L106.341 87.2703L104.936 81.2749L103.375 81.6406ZM102.214 93.3818L101.444 91.9751L91.7955 97.2558L92.5654 98.6625L93.3353 100.069L102.984 94.7884L102.214 93.3818ZM86.6591 98.0258L87.7111 96.8156L82.3735 92.1759L81.3215 93.3862L80.2695 94.5965L85.6071 99.2361L86.6591 98.0258ZM77.0629 92.108L76.8981 90.5129C75.5563 90.6516 74.1932 90.7233 72.8125 90.7233V92.3269V93.9305C74.3045 93.9305 75.7775 93.853 77.2277 93.7031L77.0629 92.108ZM72.8125 92.3269V90.7233C71.4337 90.7233 70.0727 90.6521 68.733 90.5141L68.5687 92.1093L68.4044 93.7044C69.8524 93.8536 71.3231 93.9305 72.8125 93.9305V92.3269ZM64.3107 93.388L63.2586 92.1778L57.9198 96.8191L58.9719 98.0293L60.024 99.2395L65.3628 94.5983L64.3107 93.388ZM53.0652 98.6661L53.8351 97.2594L44.1866 91.9779L43.4166 93.3846L42.6466 94.7912L52.2952 100.073L53.0652 98.6661ZM40.8511 87.6394L42.4124 88.005L43.8155 82.0124L42.2542 81.6468L40.6928 81.2812L39.2897 87.2738L40.8511 87.6394ZM41.1665 76.9641L42.4423 75.9926C40.9616 74.0482 39.6854 71.9576 38.6428 69.7488L37.1926 70.4333L35.7425 71.1177C36.8829 73.5339 38.2769 75.8164 39.8906 77.9356L41.1665 76.9641ZM33.7474 67.3638L34.2061 65.8272L27.5452 63.8388L27.0865 65.3753L26.6277 66.9119L33.2887 68.9004L33.7474 67.3638ZM23.375 60.3941H24.9786V50.3072H23.375H21.7714V60.3941H23.375ZM27.0859 45.3261L27.5448 46.8626L34.2081 44.8725L33.7492 43.336L33.2903 41.7995L26.627 43.7895L27.0859 45.3261ZM37.1936 40.2674L38.6437 40.952C39.6861 38.7443 40.962 36.6548 42.4422 34.7111L41.1664 33.7396L39.8906 32.768C38.2775 34.8863 36.8838 37.1677 35.7435 39.5827L37.1936 40.2674ZM42.2541 29.0568L43.8155 28.6912L42.4126 22.6999L40.8512 23.0655L39.2898 23.4311L40.6927 29.4224L42.2541 29.0568ZM43.4169 17.3201L44.1868 18.7268L53.8352 13.446L53.0653 12.0393L52.2953 10.6326L42.647 15.9135L43.4169 17.3201ZM58.9718 12.6762L57.9197 13.8864L63.2576 18.5268L64.3097 17.3166L65.3618 16.1064L60.0239 11.466L58.9718 12.6762ZM68.5677 18.5951L68.7323 20.1902C70.0724 20.0519 71.4336 19.9803 72.8125 19.9803V18.3767V16.7731C71.3225 16.7731 69.8514 16.8505 68.4031 17L68.5677 18.5951ZM72.8125 18.3767V19.9803C74.1921 19.9803 75.5541 20.0519 76.8947 20.1902L77.0593 18.5951L77.2239 16.9999C75.7749 16.8504 74.3031 16.7731 72.8125 16.7731V18.3767ZM81.3173 17.3168L82.3693 18.5271L87.7129 13.8823L86.6609 12.672L85.6089 11.4617L80.2653 16.1065L81.3173 17.3168ZM92.5674 12.0355L91.7974 13.4422L101.446 18.7237L102.216 17.317L102.986 15.9104L93.3374 10.6289L92.5674 12.0355ZM86.6609 12.672L87.7129 13.8823C88.8482 12.8955 90.4779 12.7199 91.7974 13.4422L92.5674 12.0355L93.3374 10.6289C90.8407 9.2622 87.7571 9.59452 85.6089 11.4617L86.6609 12.672ZM64.3097 17.3166L63.2576 18.5268C64.7956 19.8639 66.8052 20.3891 68.7323 20.1902L68.5677 18.5951L68.4031 17C67.2561 17.1183 66.156 16.7969 65.3618 16.1064L64.3097 17.3166ZM53.0653 12.0393L53.8352 13.446C55.1547 12.7238 56.7844 12.8995 57.9197 13.8864L58.9718 12.6762L60.0239 11.466C57.8758 9.59855 54.7921 9.26605 52.2953 10.6326L53.0653 12.0393ZM40.8512 23.0655L42.4126 22.6999C42.0443 21.1273 42.7701 19.5023 44.1868 18.7268L43.4169 17.3201L42.647 15.9135C39.9663 17.3807 38.5931 20.4556 39.2898 23.4311L40.8512 23.0655ZM41.1664 33.7396L42.4422 34.7111C43.7127 33.0427 44.3217 30.8531 43.8155 28.6912L42.2541 29.0568L40.6927 29.4224C40.9534 30.5356 40.6579 31.7604 39.8906 32.768L41.1664 33.7396ZM33.7492 43.336L34.2081 44.8725C36.2408 44.2655 37.7902 42.7597 38.6437 40.952L37.1936 40.2674L35.7435 39.5827C35.2251 40.6806 34.3365 41.487 33.2903 41.7995L33.7492 43.336ZM23.375 50.3072H24.9786C24.9786 48.718 26.022 47.3174 27.5448 46.8626L27.0859 45.3261L26.627 43.7895C23.7457 44.65 21.7714 47.3002 21.7714 50.3072H23.375ZM27.0865 65.3753L27.5452 63.8388C26.0222 63.3841 24.9786 61.9834 24.9786 60.3941H23.375H21.7714C21.7714 63.4013 23.7461 66.0517 26.6277 66.9119L27.0865 65.3753ZM37.1926 70.4333L38.6428 69.7488C37.7893 67.9405 36.2395 66.4343 34.2061 65.8272L33.7474 67.3638L33.2887 68.9004C34.3352 69.2128 35.2241 70.0195 35.7425 71.1177L37.1926 70.4333ZM42.2542 81.6468L43.8155 82.0124C44.3217 79.8505 43.7127 77.661 42.4423 75.9926L41.1665 76.9641L39.8906 77.9356C40.658 78.9433 40.9534 80.1681 40.6928 81.2812L42.2542 81.6468ZM43.4166 93.3846L44.1866 91.9779C42.7699 91.2025 42.0443 89.5775 42.4124 88.005L40.8511 87.6394L39.2897 87.2738C38.5931 90.2492 39.9661 93.3239 42.6466 94.7912L43.4166 93.3846ZM58.9719 98.0293L57.9198 96.8191C56.7845 97.8061 55.1547 97.9818 53.8351 97.2594L53.0652 98.6661L52.2952 100.073C54.792 101.439 57.8758 101.107 60.024 99.2395L58.9719 98.0293ZM81.3215 93.3862L82.3735 92.1759C80.8352 90.8388 78.8253 90.3138 76.8981 90.5129L77.0629 92.108L77.2277 93.7031C78.3748 93.5846 79.4751 93.906 80.2695 94.5965L81.3215 93.3862ZM92.5654 98.6625L91.7955 97.2558C90.476 97.978 88.8464 97.8024 87.7111 96.8156L86.6591 98.0258L85.6071 99.2361C87.7552 101.103 90.8387 101.436 93.3353 100.069L92.5654 98.6625ZM104.779 87.636L103.218 88.0017C103.586 89.5743 102.861 91.1996 101.444 91.9751L102.214 93.3818L102.984 94.7884C105.664 93.3211 107.038 90.2459 106.341 87.2703L104.779 87.636ZM104.462 76.9582L103.186 75.9869C101.916 77.6554 101.307 79.8448 101.814 82.0064L103.375 81.6406L104.936 81.2749C104.676 80.1618 104.971 78.9372 105.738 77.9295L104.462 76.9582ZM111.875 67.3678L111.416 65.8312C109.383 66.4382 107.834 67.944 106.98 69.7518L108.43 70.4365L109.88 71.1211C110.399 70.0231 111.288 69.2167 112.334 68.9043L111.875 67.3678ZM122.258 60.3943H120.654C120.654 61.9836 119.611 63.3843 118.088 63.839L118.547 65.3755L119.006 66.9121C121.887 66.0517 123.861 63.4014 123.861 60.3943H122.258ZM118.547 45.3263L118.088 46.8628C119.611 47.3175 120.654 48.7182 120.654 50.3075H122.258H123.861C123.861 47.3003 121.887 44.65 119.005 43.7897L118.547 45.3263ZM108.429 40.2655L106.979 40.9501C107.833 42.7579 109.382 44.2635 111.415 44.8704L111.874 43.3339L112.333 41.7973C111.286 41.4849 110.398 40.6786 109.879 39.5808L108.429 40.2655ZM77.0593 18.5951L76.8947 20.1902C78.8217 20.389 80.8312 19.864 82.3693 18.5271L81.3173 17.3168L80.2653 16.1065C79.471 16.7969 78.3709 17.1183 77.2239 16.9999L77.0593 18.5951ZM103.376 29.0631L101.815 28.6974C101.308 30.859 101.917 33.0483 103.187 34.7167L104.463 33.7455L105.739 32.7743C104.972 31.7665 104.677 30.5418 104.937 29.4288L103.376 29.0631ZM68.5687 92.1093L68.733 90.5141C66.8061 90.3157 64.7966 90.8408 63.2586 92.1778L64.3107 93.388L65.3628 94.5983C66.1571 93.9078 67.2572 93.5863 68.4044 93.7044L68.5687 92.1093ZM104.781 23.0626L106.343 23.4283C107.04 20.4528 105.667 17.3777 102.986 15.9104L102.216 17.317L101.446 18.7237C102.863 19.4992 103.588 21.1243 103.22 22.6969L104.781 23.0626Z" fill="url(#paint0_linear_6001_3078)" mask="url(#path-4-inside-1_6001_3078)"/>
</g>
<g opacity="0.4" filter="url(#filter3_f_6001_3078)">
<mask id="path-6-inside-2_6001_3078" fill="white">
<path d="M64.101 16.161C65.267 17.1746 66.8216 17.5985 68.3581 17.4376C69.8198 17.2844 71.305 17.2053 72.8096 17.2053C74.3165 17.2053 75.8038 17.2846 77.2676 17.4381C78.8043 17.5993 80.3591 17.1756 81.5253 16.162L87.1796 11.2474C88.8213 9.82048 91.1778 9.5665 93.0858 10.6108L103.25 16.174C105.299 17.2953 106.348 19.6454 105.816 21.9195L104.319 28.3095C103.936 29.9469 104.387 31.6542 105.408 32.9902C107.039 35.1224 108.442 37.4207 109.584 39.8535C110.267 41.3073 111.486 42.4625 113.025 42.9221L120.108 45.0374C122.31 45.6951 123.819 47.7205 123.819 50.0186V60.6702C123.819 62.9683 122.31 64.9938 120.108 65.6513L113.032 67.7645C111.492 68.2243 110.272 69.3802 109.589 70.8349C108.446 73.2715 107.04 75.5732 105.408 77.7084C104.386 79.0443 103.935 80.7518 104.318 82.3892L105.815 88.7772C106.347 91.0513 105.298 93.4014 103.249 94.5228L93.085 100.087C91.1769 101.131 88.8202 100.877 87.1785 99.4499L81.5264 94.5369C80.3602 93.5231 78.8052 93.0993 77.2684 93.2608C75.8044 93.4146 74.3168 93.4943 72.8096 93.4943C71.305 93.4943 69.8198 93.4148 68.3582 93.2613C66.8216 93.1001 65.267 93.524 64.101 94.5377L58.4474 99.4526C56.8057 100.88 54.449 101.134 52.5408 100.09L42.3768 94.5265C40.3281 93.4052 39.2787 91.0552 39.8111 88.7812L41.3058 82.3976C41.6893 80.7599 41.2375 79.0521 40.2155 77.7162C38.581 75.5796 37.1744 73.2762 36.0299 70.8377C35.3472 69.3831 34.1273 68.2273 32.5877 67.7676L25.5189 65.6571C23.3167 64.9996 21.8076 62.9741 21.8076 60.6758V50.0253C21.8076 47.7273 23.3165 45.7019 25.5185 45.0442L32.5869 42.9331C34.1264 42.4733 35.3462 41.3175 36.0287 39.863C37.173 37.4246 38.5794 35.1212 40.2137 32.9845C41.2356 31.6485 41.6872 29.9407 41.3036 28.303L39.8075 21.9155C39.2749 19.6415 40.3242 17.2914 42.373 16.1699L52.5369 10.6063C54.4451 9.56179 56.8019 9.81584 58.4436 11.243L64.101 16.161Z"/>
</mask>
<path d="M72.8096 17.2053L72.8096 9.18727H72.8096V17.2053ZM72.8096 93.4943V101.512H72.8096L72.8096 93.4943ZM52.5369 10.6063L48.687 3.57307L52.5369 10.6063ZM42.373 16.1699L38.523 9.1367L42.373 16.1699ZM32.5869 42.9331L34.8815 50.6158L32.5869 42.9331ZM36.0287 39.863L28.7702 36.4568L36.0287 39.863ZM25.5185 45.0442L23.2239 37.3616L25.5185 45.0442ZM32.5877 67.7676L34.8815 60.0847L32.5877 67.7676ZM41.3058 82.3976L49.1127 84.2255L41.3058 82.3976ZM40.2155 77.7162L33.8473 82.5879L40.2155 77.7162ZM42.3768 94.5265L46.2264 87.4931L42.3768 94.5265ZM58.4474 99.4526L53.1869 93.4016L58.4474 99.4526ZM52.5408 100.09L56.3904 93.0561L52.5408 100.09ZM64.101 94.5377L58.8405 88.4866L64.101 94.5377ZM93.085 100.087L89.2351 93.0533L93.085 100.087ZM87.1785 99.4499L92.4386 93.3985L87.1785 99.4499ZM105.408 77.7084L111.777 82.5789L105.408 77.7084ZM104.318 82.3892L112.125 80.5607L104.318 82.3892ZM109.589 70.8349L102.331 67.4286L109.589 70.8349ZM120.108 45.0374L117.814 52.7201L120.108 45.0374ZM113.025 42.9221L110.731 50.6048L113.025 42.9221ZM87.1796 11.2474L81.9197 5.1958L87.1796 11.2474ZM104.319 28.3095L112.126 30.1378L104.319 28.3095ZM105.408 32.9902L111.778 28.1203L105.408 32.9902ZM105.815 88.7772L98.0078 90.6058L105.815 88.7772ZM103.249 94.5228L99.3992 87.4896L103.249 94.5228ZM41.3036 28.303L33.4969 30.1315L41.3036 28.303ZM68.3581 17.4376L69.1936 25.4119C70.38 25.2876 71.5864 25.2233 72.8096 25.2233V17.2053V9.18727C71.0236 9.18727 69.2595 9.28124 67.5226 9.46322L68.3581 17.4376ZM72.8096 17.2053L72.8095 25.2233C74.0349 25.2233 75.2431 25.2877 76.4311 25.4124L77.2676 17.4381L78.1041 9.4639C76.3646 9.28143 74.598 9.18728 72.8096 9.18727L72.8096 17.2053ZM81.5253 16.162L86.7852 22.2135L92.4395 17.299L87.1796 11.2474L81.9197 5.1958L76.2654 10.1104L81.5253 16.162ZM93.0858 10.6108L89.2362 17.6442L99.4004 23.2074L103.25 16.174L107.1 9.14057L96.9354 3.57742L93.0858 10.6108ZM105.816 21.9195L98.0089 20.0912L96.5124 26.4812L104.319 28.3095L112.126 30.1378L113.622 23.7478L105.816 21.9195ZM105.408 32.9902L99.0388 37.8601C100.329 39.5475 101.432 41.3569 102.327 43.2616L109.584 39.8535L116.842 36.4454C115.452 33.4845 113.748 30.6974 111.778 28.1203L105.408 32.9902ZM113.025 42.9221L110.731 50.6048L117.814 52.7201L120.108 45.0374L122.403 37.3547L115.32 35.2394L113.025 42.9221ZM123.819 50.0186H115.801V60.6702H123.819H131.837V50.0186H123.819ZM120.108 65.6513L117.814 57.9686L110.737 60.0817L113.032 67.7645L115.326 75.4473L122.402 73.3341L120.108 65.6513ZM109.589 70.8349L102.331 67.4286C101.436 69.3357 100.331 71.1477 99.0385 72.838L105.408 77.7084L111.777 82.5789C113.75 79.9986 115.456 77.2074 116.848 74.2412L109.589 70.8349ZM104.318 82.3892L96.5116 84.2177L98.0078 90.6058L105.815 88.7772L113.621 86.9487L112.125 80.5607L104.318 82.3892ZM103.249 94.5228L99.3992 87.4896L89.2351 93.0533L93.085 100.087L96.935 107.12L107.099 101.556L103.249 94.5228ZM87.1785 99.4499L92.4386 93.3985L86.7865 88.4855L81.5264 94.5369L76.2663 100.588L81.9184 105.501L87.1785 99.4499ZM77.2684 93.2608L76.4305 85.2867C75.2419 85.4116 74.0339 85.4763 72.8095 85.4763L72.8096 93.4943L72.8096 101.512C74.5996 101.512 76.3669 101.418 78.1064 101.235L77.2684 93.2608ZM72.8096 93.4943V85.4763C71.5878 85.4763 70.382 85.4117 69.1952 85.2872L68.3582 93.2613L67.5211 101.236C69.2576 101.418 71.0222 101.512 72.8096 101.512V93.4943ZM64.101 94.5377L58.8405 88.4866L53.1869 93.4016L58.4474 99.4526L63.7079 105.504L69.3615 100.589L64.101 94.5377ZM52.5408 100.09L56.3904 93.0561L46.2264 87.4931L42.3768 94.5265L38.5272 101.56L48.6912 107.123L52.5408 100.09ZM39.8111 88.7812L47.618 90.6091L49.1127 84.2255L41.3058 82.3976L33.499 80.5696L32.0043 86.9533L39.8111 88.7812ZM40.2155 77.7162L46.5838 72.8445C45.2901 71.1533 44.1841 69.3398 43.2882 67.431L36.0299 70.8377L28.7716 74.2443C30.1647 77.2125 31.872 80.0058 33.8473 82.5879L40.2155 77.7162ZM32.5877 67.7676L34.8815 60.0847L27.8127 57.9742L25.5189 65.6571L23.225 73.3399L30.2938 75.4504L32.5877 67.7676ZM21.8076 60.6758H29.8256V50.0253H21.8076H13.7896V60.6758H21.8076ZM25.5185 45.0442L27.813 52.7269L34.8815 50.6158L32.5869 42.9331L30.2924 35.2505L23.2239 37.3616L25.5185 45.0442ZM36.0287 39.863L43.2872 43.2692C44.183 41.3604 45.2888 39.5469 46.5823 37.8557L40.2137 32.9845L33.845 28.1133C31.8701 30.6954 30.163 33.4887 28.7702 36.4568L36.0287 39.863ZM41.3036 28.303L49.1103 26.4744L47.6142 20.087L39.8075 21.9155L32.0008 23.744L33.4969 30.1315L41.3036 28.303ZM42.373 16.1699L46.2229 23.2032L56.3868 17.6395L52.5369 10.6063L48.687 3.57307L38.523 9.1367L42.373 16.1699ZM58.4436 11.243L53.1832 17.2942L58.8406 22.2122L64.101 16.161L69.3613 10.1099L63.7039 5.19183L58.4436 11.243ZM52.5369 10.6063L56.3868 17.6395C55.3519 18.206 54.0737 18.0683 53.1832 17.2942L58.4436 11.243L63.7039 5.19183C59.53 1.56341 53.5383 0.917535 48.687 3.57307L52.5369 10.6063ZM39.8075 21.9155L47.6142 20.087C47.9031 21.3203 47.334 22.5949 46.2229 23.2032L42.373 16.1699L38.523 9.1367C33.3144 11.9878 30.6467 17.9626 32.0008 23.744L39.8075 21.9155ZM32.5869 42.9331L34.8815 50.6158C38.885 49.4201 41.764 46.5153 43.2872 43.2692L36.0287 39.863L28.7702 36.4568C28.9284 36.1198 29.3679 35.5266 30.2924 35.2505L32.5869 42.9331ZM21.8076 50.0253H29.8256C29.8256 51.2717 29.0072 52.3702 27.813 52.7269L25.5185 45.0442L23.2239 37.3616C17.6258 39.0335 13.7896 44.1828 13.7896 50.0253H21.8076ZM25.5189 65.6571L27.8127 57.9742C29.0071 58.3308 29.8256 59.4294 29.8256 60.6758H21.8076H13.7896C13.7896 66.5188 17.6263 71.6683 23.225 73.3399L25.5189 65.6571ZM36.0299 70.8377L43.2882 67.431C41.7647 64.185 38.8855 61.2802 34.8815 60.0847L32.5877 67.7676L30.2938 75.4504C29.3692 75.1744 28.9297 74.5812 28.7716 74.2443L36.0299 70.8377ZM41.3058 82.3976L49.1127 84.2255C50.1095 79.9683 48.8768 75.8419 46.5838 72.8445L40.2155 77.7162L33.8473 82.5879C33.5982 82.2623 33.2691 81.5514 33.499 80.5696L41.3058 82.3976ZM42.3768 94.5265L46.2264 87.4931C47.3376 88.1013 47.9067 89.3758 47.618 90.6091L39.8111 88.7812L32.0043 86.9533C30.6506 92.7346 33.3186 98.7091 38.5272 101.56L42.3768 94.5265ZM58.4474 99.4526L53.1869 93.4016C54.0773 92.6275 55.3555 92.4897 56.3904 93.0561L52.5408 100.09L48.6912 107.123C53.5425 109.778 59.5341 109.132 63.7079 105.504L58.4474 99.4526ZM68.3582 93.2613L69.1952 85.2872C65.6955 84.9198 61.8639 85.8582 58.8405 88.4866L64.101 94.5377L69.3615 100.589C68.67 101.19 67.9476 101.28 67.5211 101.236L68.3582 93.2613ZM81.5264 94.5369L86.7865 88.4855C83.7624 85.8568 79.9301 84.9189 76.4305 85.2867L77.2684 93.2608L78.1064 101.235C77.6803 101.28 76.9579 101.189 76.2663 100.588L81.5264 94.5369ZM93.085 100.087L89.2351 93.0533C90.27 92.4868 91.5482 92.6245 92.4386 93.3985L87.1785 99.4499L81.9184 105.501C86.0923 109.129 92.0838 109.775 96.935 107.12L93.085 100.087ZM105.408 77.7084L99.0385 72.838C96.7463 75.8355 95.5146 79.9614 96.5116 84.2177L104.318 82.3892L112.125 80.5607C112.355 81.5422 112.026 82.2531 111.777 82.5789L105.408 77.7084ZM113.032 67.7645L110.737 60.0817C106.733 61.2774 103.854 64.1826 102.331 67.4286L109.589 70.8349L116.848 74.2412C116.69 74.5779 116.25 75.1712 115.326 75.4473L113.032 67.7645ZM123.819 60.6702H115.801C115.801 59.4237 116.62 58.3252 117.814 57.9686L120.108 65.6513L122.402 73.3341C128.001 71.6623 131.837 66.5129 131.837 60.6702H123.819ZM120.108 45.0374L117.814 52.7201C116.62 52.3635 115.801 51.2649 115.801 50.0186H123.819H131.837C131.837 44.176 128.001 39.0267 122.403 37.3547L120.108 45.0374ZM109.584 39.8535L102.327 43.2616C103.85 46.5064 106.729 49.4095 110.731 50.6048L113.025 42.9221L115.32 35.2394C116.244 35.5154 116.684 36.1083 116.842 36.4454L109.584 39.8535ZM103.25 16.174L99.4004 23.2074C98.2892 22.5992 97.72 21.3246 98.0089 20.0912L105.816 21.9195L113.622 23.7478C114.976 17.9663 112.308 11.9915 107.1 9.14057L103.25 16.174ZM87.1796 11.2474L92.4395 17.299C91.5491 18.0729 90.271 18.2106 89.2362 17.6442L93.0858 10.6108L96.9354 3.57742C92.0845 0.922377 86.0935 1.56808 81.9197 5.1958L87.1796 11.2474ZM77.2676 17.4381L76.4311 25.4124C79.9296 25.7794 83.7612 24.842 86.7852 22.2135L81.5253 16.162L76.2654 10.1104C76.9571 9.50921 77.6791 9.41931 78.1041 9.4639L77.2676 17.4381ZM104.319 28.3095L96.5124 26.4812C95.5156 30.7375 96.7474 34.8629 99.0388 37.8601L105.408 32.9902L111.778 28.1203C112.027 28.4456 112.356 29.1562 112.126 30.1378L104.319 28.3095ZM105.815 88.7772L98.0078 90.6058C97.7189 89.3724 98.2881 88.0978 99.3992 87.4896L103.249 94.5228L107.099 101.556C112.308 98.7049 114.975 92.7301 113.621 86.9487L105.815 88.7772ZM40.2137 32.9845L46.5823 37.8557C48.8751 34.8582 50.1075 30.7317 49.1103 26.4744L41.3036 28.303L33.4969 30.1315C33.267 29.1497 33.5961 28.4388 33.845 28.1133L40.2137 32.9845ZM68.3581 17.4376L67.5226 9.46322C67.9479 9.41866 68.6699 9.50874 69.3613 10.1099L64.101 16.161L58.8406 22.2122C61.8641 24.8405 65.6952 25.7784 69.1936 25.4119L68.3581 17.4376Z" fill="url(#paint1_linear_6001_3078)" mask="url(#path-6-inside-2_6001_3078)"/>
</g>
<path opacity="0.2" d="M64.101 16.161C65.267 17.1746 66.8216 17.5985 68.3581 17.4376C69.8198 17.2844 71.305 17.2053 72.8096 17.2053C74.3165 17.2053 75.8038 17.2846 77.2676 17.4381C78.8043 17.5993 80.3591 17.1756 81.5253 16.162L87.1796 11.2474C88.8213 9.82048 91.1778 9.5665 93.0858 10.6108L103.25 16.174C105.299 17.2953 106.348 19.6454 105.816 21.9195L104.319 28.3095C103.936 29.9469 104.387 31.6542 105.408 32.9902C107.039 35.1224 108.442 37.4207 109.584 39.8535C110.267 41.3073 111.486 42.4625 113.025 42.9221L120.108 45.0374C122.31 45.6951 123.819 47.7205 123.819 50.0186V60.6702C123.819 62.9683 122.31 64.9938 120.108 65.6513L113.032 67.7645C111.492 68.2243 110.272 69.3802 109.589 70.8349C108.446 73.2715 107.04 75.5732 105.408 77.7084C104.386 79.0443 103.935 80.7518 104.318 82.3892L105.815 88.7772C106.347 91.0513 105.298 93.4014 103.249 94.5228L93.085 100.087C91.1769 101.131 88.8202 100.877 87.1785 99.4499L81.5264 94.5369C80.3602 93.5231 78.8052 93.0993 77.2684 93.2608C75.8044 93.4146 74.3168 93.4943 72.8096 93.4943C71.305 93.4943 69.8198 93.4148 68.3582 93.2613C66.8216 93.1001 65.267 93.524 64.101 94.5377L58.4474 99.4526C56.8057 100.88 54.449 101.134 52.5408 100.09L42.3768 94.5265C40.3281 93.4052 39.2787 91.0552 39.8111 88.7812L41.3058 82.3976C41.6893 80.7599 41.2375 79.0521 40.2155 77.7162C38.581 75.5796 37.1744 73.2762 36.0299 70.8377C35.3472 69.3831 34.1273 68.2273 32.5877 67.7676L25.5189 65.6571C23.3167 64.9996 21.8076 62.9741 21.8076 60.6758V50.0253C21.8076 47.7273 23.3165 45.7019 25.5185 45.0442L32.5869 42.9331C34.1264 42.4733 35.3462 41.3175 36.0287 39.863C37.173 37.4246 38.5794 35.1212 40.2137 32.9845C41.2356 31.6485 41.6872 29.9407 41.3036 28.303L39.8075 21.9155C39.2749 19.6415 40.3242 17.2914 42.373 16.1699L52.5369 10.6063C54.4451 9.56179 56.8019 9.81584 58.4436 11.243L64.101 16.161Z" fill="white"/>
</g>
<g filter="url(#filter4_d_6001_3078)">
<ellipse cx="72.8156" cy="55.3499" rx="17.0109" ry="16.1272" fill="white"/>
<mask id="mask1_6001_3078" style="mask-type:alpha" maskUnits="userSpaceOnUse" x="55" y="39" width="35" height="33">
<ellipse cx="72.8156" cy="55.3494" rx="17.0109" ry="16.1272" fill="#FFE4E6"/>
</mask>
<g mask="url(#mask1_6001_3078)">
<g filter="url(#filter5_f_6001_3078)">
<ellipse cx="72.8156" cy="55.3494" rx="17.0109" ry="16.1272" fill="#2388FF"/>
<path d="M72.8154 40.0337C81.8033 40.0337 89.0145 46.9309 89.0146 55.3491C89.0146 63.7674 81.8034 70.6646 72.8154 70.6646C63.8276 70.6645 56.6162 63.7674 56.6162 55.3491C56.6164 46.931 63.8276 40.0338 72.8154 40.0337Z" stroke="#2388FF" stroke-width="1.62326"/>
</g>
<g filter="url(#filter6_f_6001_3078)">
<path d="M72.8154 40.0308C81.8047 40.0308 89.0174 46.9292 89.0176 55.3491C89.0176 63.7692 81.8048 70.6675 72.8154 70.6675C63.8261 70.6674 56.6133 63.7692 56.6133 55.3491C56.6134 46.9292 63.8262 40.0308 72.8154 40.0308Z" stroke="url(#paint2_linear_6001_3078)" stroke-width="1.61741"/>
</g>
<g filter="url(#filter7_f_6001_3078)">
<ellipse cx="72.8156" cy="55.3494" rx="17.0109" ry="16.1272" stroke="url(#paint3_linear_6001_3078)" stroke-width="0.81163"/>
</g>
<g opacity="0.8" filter="url(#filter8_f_6001_3078)">
<ellipse cx="72.8133" cy="55.3526" rx="10.6844" ry="10.1294" fill="white"/>
</g>
</g>
</g>
<defs>
<filter id="filter0_f_6001_3078" x="0.707365" y="0.478849" width="131.535" height="120.979" filterUnits="userSpaceOnUse" color-interpolation-filters="sRGB">
<feFlood flood-opacity="0" result="BackgroundImageFix"/>
<feBlend mode="normal" in="SourceGraphic" in2="BackgroundImageFix" result="shape"/>
<feGaussianBlur stdDeviation="9.35433" result="effect1_foregroundBlur_6001_3078"/>
</filter>
<filter id="filter1_ii_6001_3078" x="21.8086" y="4.23268" width="102.012" height="96.4953" filterUnits="userSpaceOnUse" color-interpolation-filters="sRGB">
<feFlood flood-opacity="0" result="BackgroundImageFix"/>
<feBlend mode="normal" in="SourceGraphic" in2="BackgroundImageFix" result="shape"/>
<feColorMatrix in="SourceAlpha" type="matrix" values="0 0 0 0 0 0 0 0 0 0 0 0 0 0 0 0 0 0 127 0" result="hardAlpha"/>
<feOffset dy="-1.9117"/>
<feGaussianBlur stdDeviation="1.9117"/>
<feComposite in2="hardAlpha" operator="arithmetic" k2="-1" k3="1"/>
<feColorMatrix type="matrix" values="0 0 0 0 0.0127777 0 0 0 0 0.0881667 0 0 0 0 0.766667 0 0 0 0.3 0"/>
<feBlend mode="normal" in2="shape" result="effect1_innerShadow_6001_3078"/>
<feColorMatrix in="SourceAlpha" type="matrix" values="0 0 0 0 0 0 0 0 0 0 0 0 0 0 0 0 0 0 127 0" result="hardAlpha"/>
<feOffset dy="-5.7351"/>
<feGaussianBlur stdDeviation="8.60264"/>
<feComposite in2="hardAlpha" operator="arithmetic" k2="-1" k3="1"/>
<feColorMatrix type="matrix" values="0 0 0 0 0.00694442 0 0 0 0 0.238333 0 0 0 0 0.833333 0 0 0 0.25 0"/>
<feBlend mode="normal" in2="effect1_innerShadow_6001_3078" result="effect2_innerShadow_6001_3078"/>
</filter>
<filter id="filter2_f_6001_3078" x="21.7714" y="9.79337" width="102.09" height="91.1149" filterUnits="userSpaceOnUse" color-interpolation-filters="sRGB">
<feFlood flood-opacity="0" result="BackgroundImageFix"/>
<feBlend mode="normal" in="SourceGraphic" in2="BackgroundImageFix" result="shape"/>
<feGaussianBlur stdDeviation="0.801799" result="effect1_foregroundBlur_6001_3078"/>
</filter>
<filter id="filter3_f_6001_3078" x="3.09897" y="-8.74088" width="139.429" height="128.178" filterUnits="userSpaceOnUse" color-interpolation-filters="sRGB">
<feFlood flood-opacity="0" result="BackgroundImageFix"/>
<feBlend mode="normal" in="SourceGraphic" in2="BackgroundImageFix" result="shape"/>
<feGaussianBlur stdDeviation="9.35433" result="effect1_foregroundBlur_6001_3078"/>
</filter>
<filter id="filter4_d_6001_3078" x="45.114" y="28.5315" width="55.4028" height="53.6362" filterUnits="userSpaceOnUse" color-interpolation-filters="sRGB">
<feFlood flood-opacity="0" result="BackgroundImageFix"/>
<feColorMatrix in="SourceAlpha" type="matrix" values="0 0 0 0 0 0 0 0 0 0 0 0 0 0 0 0 0 0 127 0" result="hardAlpha"/>
<feOffset/>
<feGaussianBlur stdDeviation="5.34533"/>
<feComposite in2="hardAlpha" operator="out"/>
<feColorMatrix type="matrix" values="0 0 0 0 0 0 0 0 0 0.274833 0 0 0 0 0.808333 0 0 0 0.6 0"/>
<feBlend mode="normal" in2="BackgroundImageFix" result="effect1_dropShadow_6001_3078"/>
<feBlend mode="normal" in="SourceGraphic" in2="effect1_dropShadow_6001_3078" result="shape"/>
</filter>
<filter id="filter5_f_6001_3078" x="41.248" y="24.6655" width="63.1348" height="61.3677" filterUnits="userSpaceOnUse" color-interpolation-filters="sRGB">
<feFlood flood-opacity="0" result="BackgroundImageFix"/>
<feBlend mode="normal" in="SourceGraphic" in2="BackgroundImageFix" result="shape"/>
<feGaussianBlur stdDeviation="7.27833" result="effect1_foregroundBlur_6001_3078"/>
</filter>
<filter id="filter6_f_6001_3078" x="52.5699" y="35.9874" width="40.4911" height="38.724" filterUnits="userSpaceOnUse" color-interpolation-filters="sRGB">
<feFlood flood-opacity="0" result="BackgroundImageFix"/>
<feBlend mode="normal" in="SourceGraphic" in2="BackgroundImageFix" result="shape"/>
<feGaussianBlur stdDeviation="1.61741" result="effect1_foregroundBlur_6001_3078"/>
</filter>
<filter id="filter7_f_6001_3078" x="53.781" y="37.199" width="38.0688" height="36.3007" filterUnits="userSpaceOnUse" color-interpolation-filters="sRGB">
<feFlood flood-opacity="0" result="BackgroundImageFix"/>
<feBlend mode="normal" in="SourceGraphic" in2="BackgroundImageFix" result="shape"/>
<feGaussianBlur stdDeviation="0.808703" result="effect1_foregroundBlur_6001_3078"/>
</filter>
<filter id="filter8_f_6001_3078" x="47.5722" y="30.6665" width="50.4825" height="49.3721" filterUnits="userSpaceOnUse" color-interpolation-filters="sRGB">
<feFlood flood-opacity="0" result="BackgroundImageFix"/>
<feBlend mode="normal" in="SourceGraphic" in2="BackgroundImageFix" result="shape"/>
<feGaussianBlur stdDeviation="7.27833" result="effect1_foregroundBlur_6001_3078"/>
</filter>
<linearGradient id="paint0_linear_6001_3078" x1="72.8164" y1="11.397" x2="72.8164" y2="99.3046" gradientUnits="userSpaceOnUse">
<stop stop-color="white"/>
<stop offset="1" stop-color="white" stop-opacity="0"/>
</linearGradient>
<linearGradient id="paint1_linear_6001_3078" x1="72.8135" y1="9.96777" x2="72.8135" y2="100.728" gradientUnits="userSpaceOnUse">
<stop stop-color="white"/>
<stop offset="1" stop-color="white" stop-opacity="0"/>
</linearGradient>
<linearGradient id="paint2_linear_6001_3078" x1="72.8156" y1="39.2222" x2="72.8156" y2="71.4766" gradientUnits="userSpaceOnUse">
<stop stop-color="white"/>
<stop offset="1" stop-color="white" stop-opacity="0"/>
</linearGradient>
<linearGradient id="paint3_linear_6001_3078" x1="72.8156" y1="39.2222" x2="72.8156" y2="71.4766" gradientUnits="userSpaceOnUse">
<stop stop-color="white"/>
<stop offset="1" stop-color="white" stop-opacity="0"/>
</linearGradient>
</defs>
</svg>
