<svg width="92" height="93" viewBox="0 0 92 93" fill="none" xmlns="http://www.w3.org/2000/svg">
<path d="M45.9116 17.8231C54.8739 9.74454 68.7238 10.0127 77.358 18.6964C85.9884 27.384 86.286 41.2198 78.2584 50.2445L45.904 82.7731L13.5571 50.2445C5.52956 41.2198 5.83098 27.361 14.4576 18.6964C23.0994 10.0242 36.9225 9.73305 45.9116 17.8231ZM71.9554 24.1089C66.2323 18.3555 56.9991 18.1219 51.0089 23.5229L45.9154 28.1118L40.8181 23.5267C34.8088 18.118 25.5947 18.3555 19.8563 24.1166C14.1714 29.824 13.8853 38.9598 19.1238 44.9967L45.9078 71.929L72.6918 45.0005C77.9341 38.9598 77.648 29.8355 71.9554 24.1089Z" fill="black"/>
</svg>
