<svg width="48" height="48" viewBox="0 0 48 48" fill="none" xmlns="http://www.w3.org/2000/svg">
<g clip-path="url(#clip0_6001_3804)">
<rect width="48" height="48" rx="24" fill="url(#paint0_linear_6001_3804)"/>
<path d="M35.6002 25.5197C36.8981 21.2091 37.6981 13.8397 32.2402 8.79969C28.069 4.94785 16.8002 4.55969 12.8802 12.9597C12.2258 14.3619 13.1202 16.5597 14.8802 16.4797C15.5718 16.4477 16.0002 18.6397 16.4002 19.9997C15.8402 25.5197 10.851 25.6216 8.32016 29.8397C5.20016 35.0397 9.04016 42.7197 18.2402 42.7197C27.4402 42.7197 32.7141 35.1045 35.6002 25.5197Z" fill="url(#paint1_linear_6001_3804)"/>
<path d="M38.72 38.1474C39.8933 40.4073 40.48 48.6394 40.48 48.6394H7.52002C7.52002 48.6394 8.10674 40.4073 9.28002 38.1474C11.04 34.7577 24 30.3994 24 30.3994C24 30.3994 36.96 34.7577 38.72 38.1474Z" fill="url(#paint2_linear_6001_3804)"/>
<path d="M27.8402 32.3193C27.8402 32.3193 25.7976 33.4393 23.9186 33.4393C22.0395 33.4393 20.1602 32.3193 20.1602 32.3193V28.7993C19.7559 28.8631 19.3464 28.8875 18.9374 28.8719C15.0994 28.8716 13.6522 23.281 14.4002 16.4793C14.8802 16.4793 16.0002 16.4793 17.6002 14.2393C17.2002 17.3593 21.8402 16.8793 23.6002 14.3993C22.7202 17.3593 25.0402 19.3593 27.0402 18.1593C30.9619 15.8061 31.8435 22.9794 27.8402 23.0393V32.3193Z" fill="url(#paint3_linear_6001_3804)"/>
<g style="mix-blend-mode:multiply" opacity="0.782">
<path d="M20.1602 28.7996C22.1449 28.4342 24.0441 27.7017 25.7602 26.6396C25.7602 26.6396 23.7602 30.0796 20.1602 30.0796V28.7996Z" fill="#FFD7B8"/>
</g>
<path d="M24.0057 33.2754C25.162 33.2231 27.8404 32.6567 27.8404 31.433V30.3994C28.1338 30.3994 28.974 31.0925 29.4061 31.6794C31.1143 33.9994 29.2196 36.0794 27.6743 36.0794C25.7245 36.0794 24.4324 34.4503 24.0004 33.6666C23.5684 34.4506 22.2762 36.0794 20.3265 36.0794C18.7812 36.0794 16.8865 33.9994 18.5946 31.6794C19.0268 31.0925 19.8669 30.3994 20.1604 30.3994V31.433C20.1604 32.6567 22.9111 33.2231 24.0057 33.2754Z" fill="white"/>
<path d="M23.3604 44.1601C23.3604 44.0335 23.3979 43.9098 23.4682 43.8045C23.5385 43.6993 23.6385 43.6173 23.7554 43.5688C23.8724 43.5204 24.0011 43.5077 24.1252 43.5324C24.2494 43.5571 24.3634 43.6181 24.4529 43.7076C24.5424 43.7971 24.6034 43.9111 24.6281 44.0353C24.6527 44.1594 24.6401 44.2881 24.5916 44.405C24.5432 44.522 24.4612 44.6219 24.3559 44.6923C24.2507 44.7626 24.1269 44.8001 24.0004 44.8001C23.8306 44.8001 23.6678 44.7327 23.5478 44.6127C23.4278 44.4926 23.3604 44.3299 23.3604 44.1601ZM23.3604 40.9601C23.3604 40.8335 23.3979 40.7098 23.4682 40.6046C23.5385 40.4993 23.6385 40.4173 23.7554 40.3688C23.8724 40.3204 24.0011 40.3077 24.1252 40.3324C24.2494 40.3571 24.3634 40.4181 24.4529 40.5076C24.5424 40.5971 24.6034 40.7111 24.6281 40.8353C24.6527 40.9594 24.6401 41.0881 24.5916 41.205C24.5432 41.322 24.4612 41.4219 24.3559 41.4923C24.2507 41.5626 24.1269 41.6001 24.0004 41.6001C23.8306 41.6001 23.6678 41.5327 23.5478 41.4127C23.4278 41.2926 23.3604 41.1299 23.3604 40.9601ZM23.3604 37.7601C23.3604 37.6335 23.3979 37.5098 23.4682 37.4046C23.5385 37.2993 23.6385 37.2173 23.7554 37.1688C23.8724 37.1204 24.0011 37.1077 24.1252 37.1324C24.2494 37.1571 24.3634 37.2181 24.4529 37.3076C24.5424 37.3971 24.6034 37.5111 24.6281 37.6353C24.6527 37.7594 24.6401 37.8881 24.5916 38.005C24.5432 38.122 24.4612 38.2219 24.3559 38.2923C24.2507 38.3626 24.1269 38.4001 24.0004 38.4001C23.8306 38.4001 23.6678 38.3327 23.5478 38.2127C23.4278 38.0926 23.3604 37.9299 23.3604 37.7601Z" fill="url(#paint4_linear_6001_3804)"/>
</g>
<defs>
<linearGradient id="paint0_linear_6001_3804" x1="24" y1="48" x2="24" y2="0" gradientUnits="userSpaceOnUse">
<stop stop-color="#FFC9B3"/>
<stop offset="1" stop-color="#FFD2C2"/>
</linearGradient>
<linearGradient id="paint1_linear_6001_3804" x1="21.9013" y1="6.17383" x2="21.9013" y2="42.7197" gradientUnits="userSpaceOnUse">
<stop stop-color="#130027"/>
<stop offset="1" stop-color="#130017"/>
</linearGradient>
<linearGradient id="paint2_linear_6001_3804" x1="24" y1="48.6394" x2="24" y2="30.3994" gradientUnits="userSpaceOnUse">
<stop stop-color="#E6864E"/>
<stop offset="1" stop-color="#E67240"/>
</linearGradient>
<linearGradient id="paint3_linear_6001_3804" x1="22.3276" y1="14.2393" x2="22.3276" y2="33.4393" gradientUnits="userSpaceOnUse">
<stop stop-color="#FFE0CC"/>
<stop offset="1" stop-color="#FFEADB"/>
</linearGradient>
<linearGradient id="paint4_linear_6001_3804" x1="24.0004" y1="37.1201" x2="24.0004" y2="44.8001" gradientUnits="userSpaceOnUse">
<stop stop-color="#130027"/>
<stop offset="1" stop-color="#130017"/>
</linearGradient>
<clipPath id="clip0_6001_3804">
<rect width="48" height="48" rx="24" fill="white"/>
</clipPath>
</defs>
</svg>
