<svg width="48" height="48" viewBox="0 0 48 48" fill="none" xmlns="http://www.w3.org/2000/svg">
<g clip-path="url(#clip0_6001_3813)">
<rect width="48" height="48" rx="24" fill="url(#paint0_linear_6001_3813)"/>
<path d="M19.7264 33.4201C21.1121 31.1161 24.2934 26.6998 31.8683 20.4943C43.2987 11.1303 32.5107 2.56538 20.9212 7.12702C19.6815 7.61507 16.2459 5.66133 13.0635 7.7196C11.0106 9.04736 11.8095 10.0879 11.0102 11.1285C10.2108 12.169 7.12909 12.1078 6.45398 14.8097C6.05414 16.4104 7.16062 18.0872 7.01262 19.292C6.86463 20.4969 5.69656 21.5829 5.64084 23.1735C5.61671 23.8453 5.72517 24.5153 5.96001 25.1451C6.19485 25.775 6.55147 26.3525 7.00951 26.8445C7.46756 27.3365 8.01804 27.7335 8.62953 28.0127C9.24101 28.292 9.90152 28.448 10.5733 28.472C10.5788 29.8 11.0974 31.0746 12.0207 32.0293C12.9439 32.984 14.2005 33.5449 15.5276 33.5948C16.3787 33.6259 17.2239 33.4428 17.9857 33.0624C18.7417 33.7591 19.3906 33.9782 19.7264 33.4201Z" fill="url(#paint1_linear_6001_3813)"/>
<path d="M22.5598 6.55992C20.5892 7.82392 18.1513 11.9695 19.2214 17.5345C19.4548 18.7487 18.7254 19.1122 18.1014 17.6145C16.2187 13.0959 16.0004 9.02088 19.2214 7.0716C19.7814 6.73448 20.1014 7.0076 20.5014 6.97448C21.2622 6.91144 22.2865 6.3724 22.5598 6.55992Z" fill="url(#paint2_linear_6001_3813)"/>
<path d="M19.9995 31.0406C19.9995 29.6006 19.9506 22.4979 19.953 22.3779C15.9995 22.9606 16.0795 15.4406 20.0795 17.2806C20.9595 17.8406 23.4395 17.2806 23.1995 12.6406C27.5195 17.2806 32.535 11.8688 32.9651 16.2787C33.5525 22.3003 32.9616 28.6021 29.2194 28.6025C28.81 28.5976 28.4018 28.5568 27.9995 28.4806V31.0406C27.9995 32.6406 30.8795 33.4406 30.8795 33.4406C30.8795 33.4406 25.9048 38.1286 23.8395 38.1027C21.7742 38.0768 17.1195 33.4406 17.1195 33.4406C17.1195 33.4406 19.9995 32.6406 19.9995 31.0406Z" fill="url(#paint3_linear_6001_3813)"/>
<g style="mix-blend-mode:multiply">
<path d="M27.9995 28.4803C26.0145 28.0401 24.1336 27.2197 22.4604 26.0645C22.4604 26.0645 23.8409 29.4393 27.9943 30.0797L27.9995 28.4803Z" fill="#FFDBC9"/>
</g>
<path d="M38.7195 38.2406C39.8803 40.8201 40.4795 48.6406 40.4795 48.6406H7.51953C7.51953 48.6406 8.11873 40.8201 9.27953 38.2406C10.2965 35.9809 16.9978 33.3864 18.9616 32.6406C20.0955 33.9091 21.7205 34.7206 23.9995 34.7206C26.2786 34.7206 27.9035 33.9091 29.0375 32.6406C31.0013 33.3864 37.7026 35.9809 38.7195 38.2406Z" fill="url(#paint4_linear_6001_3813)"/>
</g>
<defs>
<linearGradient id="paint0_linear_6001_3813" x1="24" y1="48" x2="24" y2="0" gradientUnits="userSpaceOnUse">
<stop stop-color="#FFC9B3"/>
<stop offset="1" stop-color="#FFD2C2"/>
</linearGradient>
<linearGradient id="paint1_linear_6001_3813" x1="20.6325" y1="33.7866" x2="21.6181" y2="5.65479" gradientUnits="userSpaceOnUse">
<stop stop-color="#E6864E"/>
<stop offset="1" stop-color="#E67240"/>
</linearGradient>
<linearGradient id="paint2_linear_6001_3813" x1="19.6461" y1="6.52051" x2="19.6461" y2="18.5982" gradientUnits="userSpaceOnUse">
<stop stop-color="#1D0024"/>
<stop offset="1" stop-color="#100014"/>
</linearGradient>
<linearGradient id="paint3_linear_6001_3813" x1="25.0971" y1="12.6406" x2="25.0971" y2="38.1028" gradientUnits="userSpaceOnUse">
<stop stop-color="#FFE0CC"/>
<stop offset="1" stop-color="#FFEADB"/>
</linearGradient>
<linearGradient id="paint4_linear_6001_3813" x1="23.9995" y1="32.6406" x2="23.9995" y2="48.6406" gradientUnits="userSpaceOnUse">
<stop stop-color="#130027"/>
<stop offset="1" stop-color="#130017"/>
</linearGradient>
<clipPath id="clip0_6001_3813">
<rect width="48" height="48" rx="24" fill="white"/>
</clipPath>
</defs>
</svg>
