<svg width="81" height="77" viewBox="0 0 81 77" fill="none" xmlns="http://www.w3.org/2000/svg">
<path d="M26.7385 7.96619V15.6272H7.66153V69.2543H68.7077V34.7797H76.3385V73.0848C76.3385 74.1007 75.9365 75.075 75.221 75.7934C74.5054 76.5117 73.535 76.9153 72.5231 76.9153H3.84615C2.83424 76.9153 1.86379 76.5117 1.14826 75.7934C0.432739 75.075 0.0307617 74.1007 0.0307617 73.0848V11.7967C0.0307617 10.7808 0.432739 9.80647 1.14826 9.08812C1.86379 8.36976 2.83424 7.96619 3.84615 7.96619H26.7385ZM53.4462 15.6272V0.305176L80.1539 23.2882H45.8154C43.7916 23.2882 41.8507 24.0953 40.4196 25.5321C38.9886 26.9688 38.1846 28.9174 38.1846 30.9492V53.9323H30.5538V30.9492C30.5538 26.8856 32.1618 22.9883 35.0238 20.1149C37.8859 17.2415 41.7678 15.6272 45.8154 15.6272H53.4462Z" fill="black"/>
</svg>
